<?xml version="1.0" encoding="UTF-8" standalone="no"?>
<svg width="60px" height="60px" viewBox="0 0 60 60" version="1.1" xmlns="http://www.w3.org/2000/svg" xmlns:xlink="http://www.w3.org/1999/xlink" xmlns:sketch="http://www.bohemiancoding.com/sketch/ns">
    <!-- Generator: Sketch 3.2.2 (9983) - http://www.bohemiancoding.com/sketch -->
    <title>Xmascandle</title>
    <desc>Created with Sketch.</desc>
    <defs></defs>
    <g id="stroked" stroke="none" stroke-width="1" fill="none" fill-rule="evenodd" sketch:type="MSPage">
        <g id="Holidays" sketch:type="MSLayerGroup" transform="translate(-253.000000, -358.000000)" stroke="#ffffff" stroke-width="2" stroke-linecap="round" stroke-linejoin="round">
            <g id="Xmascandle" transform="translate(267.000000, 361.000000)" sketch:type="MSShapeGroup">
                <rect id="Rectangle-1870" x="7" y="17" width="16" height="34"></rect>
                <path d="M2,51 L28,51" id="Line"></path>
                <path d="M0,54 L30,54" id="Line"></path>
                <path d="M7,41 L23,37 L23,42 L7,46 L7,41 Z" id="Rectangle-1871"></path>
                <path d="M7,28 L23,24 L23,29 L7,33 L7,28 Z" id="Rectangle-1871"></path>
                <path d="M15,14 C17.7614237,14 20,11.7614237 20,9 C20,6.23857625 15,0 15,0 C15,0 10,6.23857625 10,9 C10,11.7614237 12.2385763,14 15,14 Z" id="Oval-1633"></path>
            </g>
        </g>
    </g>
</svg>