<?xml version="1.0" encoding="iso-8859-1"?>
<!DOCTYPE svg PUBLIC "-//W3C//DTD SVG 1.1//EN" "http://www.w3.org/Graphics/SVG/1.1/DTD/svg11.dtd">
<svg 
 version="1.1" xmlns="http://www.w3.org/2000/svg" xmlns:xlink="http://www.w3.org/1999/xlink" x="0px" y="0px" width="512px"
	 height="512px" viewBox="0 0 512 512" enable-background="new 0 0 512 512" xml:space="preserve"
><g id="b75708d097f2188dff6617b0f00def47"><g></g><g fill="#c6c6c6"><path display="inline" d="M256,0.5C114.893,0.5,0.5,114.891,0.5,256c0,141.107,114.393,255.5,255.5,255.5S511.5,397.107,511.5,256
		C511.5,114.891,397.107,0.5,256,0.5z M213.417,375.233c0,16.393-12.775,29.809-28.39,29.809c-15.611,0-28.386-13.416-28.386-29.809
		V136.767c0-16.395,12.775-29.808,28.386-29.808c15.615,0,28.39,13.413,28.39,29.808V375.233z M355.359,375.233
		c0,16.393-12.774,29.809-28.39,29.809c-15.611,0-28.387-13.416-28.387-29.809V136.767c0-16.395,12.775-29.808,28.387-29.808
		c15.615,0,28.39,13.413,28.39,29.808V375.233z"></path></g></g></svg>