<?xml version="1.0" encoding="UTF-8" standalone="no"?>
<svg width="60px" height="60px" viewBox="0 0 60 60" version="1.1" xmlns="http://www.w3.org/2000/svg" xmlns:xlink="http://www.w3.org/1999/xlink" xmlns:sketch="http://www.bohemiancoding.com/sketch/ns">
    <!-- Generator: Sketch 3.2.2 (9983) - http://www.bohemiancoding.com/sketch -->
    <title>Hook</title>
    <desc>Created with Sketch.</desc>
    <defs></defs>
    <g id="stroked" stroke="none" stroke-width="1" fill="none" fill-rule="evenodd" sketch:type="MSPage">
        <g id="Activities" sketch:type="MSLayerGroup" transform="translate(-374.000000, -1198.000000)" stroke="#ffffff" stroke-width="2" stroke-linejoin="round">
            <g id="Hook" transform="translate(378.000000, 1204.000000)" sketch:type="MSShapeGroup">
                <path d="M29.1053931,12.6703439 C30.8593173,11.3982775 32,9.33234909 32,7 C32,3.13400675 28.8659932,0 25,0 C21.1340068,0 18,3.13400675 18,7 C18,9.37645347 19.1842309,11.476315 20.9947605,12.7416525" id="Oval-929" stroke-linecap="round"></path>
                <circle id="Oval-930" stroke-linecap="round" cx="25" cy="14" r="4"></circle>
                <path d="M25,40 C25,45.5228475 29.4771525,50 35,50 C40.5228475,50 45,45.5228475 45,40" id="Oval-930" stroke-linecap="round"></path>
                <path d="M5,40 C5,45.5228475 9.4771525,50 15,50 C20.5228475,50 25,45.5228475 25,40" id="Oval-930" stroke-linecap="round"></path>
                <path d="M25,40 L25,18" id="Line" stroke-linecap="square"></path>
                <polygon id="Triangle-35" stroke-linecap="round" points="45 27 50 40 40 40 "></polygon>
                <polygon id="Triangle-36" stroke-linecap="round" points="5 27 10 40 0 40 "></polygon>
            </g>
        </g>
    </g>
</svg>